<svg width="24" height="22" viewBox="0 0 24 22" fill="none" xmlns="http://www.w3.org/2000/svg">
<path d="M10.6172 3.35448C11.2875 5.36541 10.6032 7.3951 9.0891 7.89198C7.57504 8.38885 5.80316 7.16073 5.13285 5.14979C4.46254 3.13885 5.14691 1.10916 6.66098 0.612289C8.17504 0.115414 9.94691 1.34354 10.6172 3.35448ZM4.70629 8.30917C5.59223 9.82792 5.3766 11.5951 4.22816 12.2514C3.07973 12.9076 1.42973 12.2092 0.548476 10.6904C-0.332774 9.17166 -0.126524 7.40448 1.02191 6.74823C2.17035 6.09198 3.82035 6.79041 4.7016 8.30917H4.70629ZM3.24379 17.806C5.70004 11.1826 10.0641 9.49979 12 9.49979C13.936 9.49979 18.3 11.1826 20.7563 17.806C20.925 18.2607 21 18.7482 21 19.2357V19.3107C21 20.5201 20.0203 21.4998 18.811 21.4998C18.2719 21.4998 17.7375 21.4342 17.2172 21.3029L13.0922 20.2717C12.375 20.0935 11.625 20.0935 10.9079 20.2717L6.78285 21.3029C6.26254 21.4342 5.72816 21.4998 5.1891 21.4998C3.97973 21.4998 3.00004 20.5201 3.00004 19.3107V19.2357C3.00004 18.7482 3.07504 18.2607 3.24379 17.806ZM19.7719 12.2514C18.6235 11.5951 18.4079 9.82792 19.2938 8.30917C20.1797 6.79041 21.825 6.09198 22.9735 6.74823C24.1219 7.40448 24.3375 9.17166 23.4516 10.6904C22.5657 12.2092 20.9203 12.9076 19.7719 12.2514ZM14.536 7.89198C13.0219 7.3951 12.3375 5.36541 13.0079 3.35448C13.6782 1.34354 15.45 0.115414 16.9641 0.612289C18.4782 1.10916 19.1625 3.13885 18.4922 5.14979C17.8219 7.16073 16.05 8.38885 14.536 7.89198Z" fill="#F97316"/>
</svg>
